<?xml version="1.0" standalone="no"?><!DOCTYPE svg PUBLIC "-//W3C//DTD SVG 1.1//EN" "http://www.w3.org/Graphics/SVG/1.1/DTD/svg11.dtd"><svg t="1573483291095" class="icon" viewBox="0 0 1024 1024" version="1.1" xmlns="http://www.w3.org/2000/svg" p-id="2079" xmlns:xlink="http://www.w3.org/1999/xlink" width="200" height="200"><defs><style type="text/css"></style></defs><path d="M682.24937681 465.26183293c0 16.6955736 11.11573701 27.81131063 27.81131062 27.81131065s27.81131063-11.11573701 27.81131065-27.81131065a167.39509273 167.39509273 0 0 0-166.91179993-166.91179993c-16.6955736 0-27.81131063 11.11573701-27.81131064 27.81131065s11.15967316 27.81131063 27.81131064 27.81131063a111.59672847 111.59672847 0 0 1 111.28917866 111.28917866z m111.28917868 0c0 16.6955736 11.11573701 27.81131063 27.81131062 27.81131064s27.81131063-11.11573701 27.81131064-27.81131064c0-152.98417694-125.21680165-278.20097786-278.2009786-278.20097782-16.6955736 0-27.81131063 11.15967316-27.81131064 27.85524599s11.15967316 27.81131063 27.81131063 27.81131063c122.4049157 0 222.57835657 100.17344164 222.57835733 222.53442121z m-375.56253352-97.3615549c30.62319661-30.57926125 33.3911472-77.89803145 5.57983582-111.28917865l-86.24581788-108.47729271c-27.81131063-36.15909783-80.66598129-41.73893363-116.86901447-13.92762298-2.76795061 2.81188597-5.53590045 2.81188597-5.53590123 5.57983659l-75.13008083 75.13008082c-72.31819488 72.31819488 30.6231966 267.04130545 217.04245611 453.41662883C543.14888751 854.70805408 735.06011211 954.88149494 807.378307 885.33125068l75.13008083-75.13008086c33.39114721-33.39114721 33.39114721-86.24581787 0-116.82507909L876.97248739 687.79625414l-108.52122807-86.24581788c-33.34721108-27.81131063-80.62204594-25.04336002-111.24524252 5.5798366L609.93118194 654.44904307c-50.08672082-30.6231966-94.59360506-64.01434382-133.56458886-102.94139226-38.92704767-38.97098378-72.27425951-83.47786803-102.89745534-133.56458808l44.50688424-50.0427847z m-38.92704766-75.13008082c8.34778642 11.15967316 8.34778642 27.85524674-2.81188674 36.20303316l-61.20245787 63.9704077a29.56873957 29.56873957 0 0 0-5.53590043 33.39114722 721.42452061 721.42452061 0 0 0 122.4049157 164.09991397 721.51239131 721.51239131 0 0 0 164.09991397 122.40491491 29.56873957 29.56873957 0 0 0 33.39114644-5.57983581l63.97040847-63.97040846c11.15967316-11.11573702 25.04336002-11.11573702 36.20303317-2.76795061L838.04543972 729.53518777s2.76795062 0 2.76794986 2.76795063a26.88866043 26.88866043 0 0 1 0 38.97098378l-75.13008087 75.13008085c-36.1151617 36.1151617-208.60679821-55.6665574-372.75064753-217.04245612-164.09991397-161.33196337-253.11368245-336.54761436-216.95458463-372.75064753l77.8540961-77.89803145c11.15967316-8.34778642 30.6231966-8.34778642 38.97098303 5.57983657l86.24581862 108.52122805z" fill="#1296db" p-id="2080"></path></svg>